/* XPM */
static char * crown32_xpm[] = {
"32 32 63 1",
" 	c None",
".	c #0E1528",
"+	c #52545A",
"@	c #515358",
"#	c #D7D7D8",
"$	c #87888A",
"%	c #A2A2A4",
"&	c #D2D2D3",
"*	c #40424A",
"=	c #919194",
"-	c #DDDDDD",
";	c #3B3D45",
">	c #A4A5A7",
",	c #474950",
"'	c #B9B9BA",
")	c #C6C6C7",
"!	c #6A6B70",
"~	c #626368",
"{	c #D9D9DA",
"]	c #3B3D46",
"^	c #3C3E46",
"/	c #BCBCBD",
"(	c #525359",
"_	c #636468",
":	c #ECEDED",
"<	c #E7E7E8",
"[	c #D4D4D5",
"}	c #86878A",
"|	c #9E9EA0",
"1	c #E0E0E1",
"2	c #E5E5E6",
"3	c #DADADB",
"4	c #929295",
"5	c #CCCCCD",
"6	c #CDCDCE",
"7	c #919294",
"8	c #88898C",
"9	c #8C8C8F",
"0	c #CFCFD0",
"a	c #E2E2E3",
"b	c #3A3C45",
"c	c #53545A",
"d	c #A9A9AB",
"e	c #BABABB",
"f	c #717276",
"g	c #7D7D80",
"h	c #78797C",
"i	c #BDBEBF",
"j	c #A6A6A8",
"k	c #DBDCDC",
"l	c #717275",
"m	c #AEAEB0",
"n	c #CDCDCD",
"o	c #CBCBCC",
"p	c #E1E1E2",
"q	c #DDDDDE",
"r	c #B5B6B7",
"s	c #D8D8D9",
"t	c #717175",
"u	c #939396",
"v	c #43454C",
"w	c #B2B2B3",
"x	c #707174",
"             ......             ",
"          ............          ",
"        ................        ",
"      ....................      ",
"     ......................     ",
"    ........................    ",
"   ..........................   ",
"   ..........................   ",
"  ............................  ",
"  ............................  ",
" ..............+@.............. ",
" ..............#$.............. ",
" .............%&............... ",
"......*......=-;.>$......,......",
"......')!..~){]..^{/(.._)'......",
"......;:#<<[}......|#123:;......",
".......45..............67.......",
"........&8............90........",
"........(ab..........^ac........",
" ........de...fggh...ij........ ",
" .........kl.m5no5pqrs......... ",
" .........tu.......vwx......... ",
"  ............................  ",
"  ............................  ",
"   ..........................   ",
"   ..........................   ",
"    ........................    ",
"     ......................     ",
"      ....................      ",
"        ................        ",
"          ............          ",
"             ......             "};
