/* XPM */
static char * crown16_xpm[] = {
"16 16 29 1",
" 	c None",
".	c #0E1528",
"+	c #717275",
"@	c #525359",
"#	c #3D3F47",
"$	c #44464D",
"%	c #B1B2B3",
"&	c #3B3D45",
"*	c #071126",
"=	c #BBBBBD",
"-	c #A3A3A5",
";	c #A3A4A6",
">	c #AFAFB1",
",	c #0F1628",
"'	c #A8A8AA",
")	c #A2A3A5",
"!	c #B3B3B5",
"~	c #484A51",
"{	c #AAABAC",
"]	c #949597",
"^	c #626368",
"/	c #5A5B60",
"(	c #5E5F64",
"_	c #66676B",
":	c #919294",
"<	c #636468",
"[	c #8B8C8F",
"}	c #87888A",
"|	c #A7A7A9",
"      ....      ",
"    ........    ",
"  ............  ",
"  ............  ",
" .............. ",
" ......+@...... ",
"...#..$%@&..*...",
"...=-;>.,');!...",
"...~{......{$...",
"....]^./(._:....",
" ....-<[}|%.... ",
" .............. ",
"  ............  ",
"  ............  ",
"    ........    ",
"      ....      "};
