/* XPM */
static char * crown64_xpm[] = {
"64 64 150 2",
"  	c None",
". 	c #0E1528",
"+ 	c #31333E",
"@ 	c #242835",
"# 	c #B0B1B2",
"$ 	c #A3A4A6",
"% 	c #4C4D54",
"& 	c #F6F6F6",
"* 	c #D9DADA",
"= 	c #CFCFD0",
"- 	c #FFFFFF",
"; 	c #88898B",
"> 	c #9A9A9C",
", 	c #CECECF",
"' 	c #6E6F73",
") 	c #FAFBFB",
"! 	c #EFF0F0",
"~ 	c #3A3C45",
"{ 	c #636468",
"] 	c #F1F1F1",
"^ 	c #FAFAFB",
"/ 	c #6D6E72",
"( 	c #4A4C53",
"_ 	c #161B2C",
": 	c #939496",
"< 	c #797A7E",
"[ 	c #FBFBFB",
"} 	c #87888B",
"| 	c #515359",
"1 	c #FAFAFA",
"2 	c #E6E7E7",
"3 	c #606166",
"4 	c #86878A",
"5 	c #9D9D9F",
"6 	c #ECECEC",
"7 	c #A2A3A4",
"8 	c #101729",
"9 	c #B4B4B5",
"0 	c #F2F3F3",
"a 	c #87878A",
"b 	c #F2F2F2",
"c 	c #929295",
"d 	c #939497",
"e 	c #E7E8E8",
"f 	c #9F9FA2",
"g 	c #DDDDDE",
"h 	c #EFEFEF",
"i 	c #B9B9BA",
"j 	c #717276",
"k 	c #0D1528",
"l 	c #5D5F64",
"m 	c #AFB0B1",
"n 	c #DCDCDC",
"o 	c #5D5E63",
"p 	c #747579",
"q 	c #E2E2E2",
"r 	c #999A9C",
"s 	c #3F4149",
"t 	c #6C6D71",
"u 	c #68696E",
"v 	c #FEFEFE",
"w 	c #E7E7E8",
"x 	c #F7F7F8",
"y 	c #E3E3E4",
"z 	c #949598",
"A 	c #2C2F3A",
"B 	c #B1B2B3",
"C 	c #EDEDED",
"D 	c #696A6E",
"E 	c #B7B7B9",
"F 	c #A7A8A9",
"G 	c #A0A1A3",
"H 	c #C4C5C6",
"I 	c #CBCBCC",
"J 	c #CACACB",
"K 	c #ABACAE",
"L 	c #67686C",
"M 	c #0D1427",
"N 	c #838487",
"O 	c #D0D0D1",
"P 	c #CCCCCD",
"Q 	c #C5C6C7",
"R 	c #A2A2A4",
"S 	c #A8A8AA",
"T 	c #B7B8B9",
"U 	c #272B36",
"V 	c #F0F0F0",
"W 	c #3B3D45",
"X 	c #EBEBEC",
"Y 	c #252835",
"Z 	c #7F7F83",
"` 	c #C2C2C3",
" .	c #C3C3C5",
"..	c #7D7D81",
"+.	c #737477",
"@.	c #76777B",
"#.	c #C9C9CA",
"$.	c #43444C",
"%.	c #F4F5F5",
"&.	c #E7E7E7",
"*.	c #0D1428",
"=.	c #0B1327",
"-.	c #E8E9E9",
";.	c #F3F3F3",
">.	c #3C3E46",
",.	c #9B9B9E",
"'.	c #AEAEAF",
").	c #B1B1B3",
"!.	c #57595E",
"~.	c #D8D8D9",
"{.	c #636469",
"].	c #B5B6B7",
"^.	c #959597",
"/.	c #7E7F82",
"(.	c #A6A7A8",
"_.	c #AAAAAC",
":.	c #AAAAAB",
"<.	c #808184",
"[.	c #55575C",
"}.	c #9A9B9D",
"|.	c #B0B0B2",
"1.	c #181D2D",
"2.	c #EAEAEA",
"3.	c #F0F0F1",
"4.	c #828285",
"5.	c #D3D3D4",
"6.	c #3D3F47",
"7.	c #F5F5F5",
"8.	c #0A1226",
"9.	c #7B7C7F",
"0.	c #C3C4C5",
"a.	c #97989A",
"b.	c #7C7C7F",
"c.	c #343741",
"d.	c #0C1327",
"e.	c #0E1629",
"f.	c #747578",
"g.	c #88888B",
"h.	c #AFAFB1",
"i.	c #D4D4D5",
"j.	c #F4F4F4",
"k.	c #F8F9F9",
"l.	c #C8C9CA",
"m.	c #64666A",
"n.	c #D2D2D3",
"o.	c #FDFDFE",
"p.	c #C0C0C2",
"q.	c #3C3E47",
"r.	c #5C5E63",
"s.	c #707174",
"                                                                                                                                ",
"                                                . . . . . . . . . . . . . . . .                                                 ",
"                                          . . . . . . . . . . . . . . . . . . . . . .                                           ",
"                                      . . . . . . . . . . . . . . . . . . . . . . . . . .                                       ",
"                                  . . . . . . . . . . . . . . . . . . . . . . . . . . . . . .                                   ",
"                              . . . . . . . . . . . . . . . . . . . . . . . . . . . . . . . . . .                               ",
"                            . . . . . . . . . . . . . . . . . . . . . . . . . . . . . . . . . . . .                             ",
"                        . . . . . . . . . . . . . . . . . . . . . . . . . . . . . . . . . . . . . . . .                         ",
"                      . . . . . . . . . . . . . . . . . . . . . . . . . . . . . . . . . . . . . . . . . .                       ",
"                    . . . . . . . . . . . . . . . . . . . . . . . . . . . . . . . . . . . . . . . . . . . .                     ",
"                  . . . . . . . . . . . . . . . . . . . . . . . . . . . . . . . . . . . . . . . . . . . . . .                   ",
"                . . . . . . . . . . . . . . . . . . . . . . . . . . . . . . . . . . . . . . . . . . . . . . . .                 ",
"              . . . . . . . . . . . . . . . . . . . . . . . . . . . . . . . . . . . . . . . . . . . . . . . . . .               ",
"              . . . . . . . . . . . . . . . . . . . . . . . . . . . . . . . . . . . . . . . . . . . . . . . . . .               ",
"            . . . . . . . . . . . . . . . . . . . . . . . . . . . . . . . . . . . . . . . . . . . . . . . . . . . .             ",
"          . . . . . . . . . . . . . . . . . . . . . . . . . . . . . . . . . . . . . . . . . . . . . . . . . . . . . .           ",
"          . . . . . . . . . . . . . . . . . . . . . . . . . . . . . . . . . . . . . . . . . . . . . . . . . . . . . .           ",
"        . . . . . . . . . . . . . . . . . . . . . . . . . . . . . . . . . . . . . . . . . . . . . . . . . . . . . . . .         ",
"        . . . . . . . . . . . . . . . . . . . . . . . . . . . . . . . . . . . . . . . . . . . . . . . . . . . . . . . .         ",
"      . . . . . . . . . . . . . . . . . . . . . . . . . . . . . . . . . . . . . . . . . . . . . . . . . . . . . . . . . .       ",
"      . . . . . . . . . . . . . . . . . . . . . . . . . . . . + @ . . . . . . . . . . . . . . . . . . . . . . . . . . . .       ",
"    . . . . . . . . . . . . . . . . . . . . . . . . . . . . . # $ . . . . . . . . . . . . . . . . . . . . . . . . . . . . .     ",
"    . . . . . . . . . . . . . . . . . . . . . . . . . . . . % & * . . . . . . . . . . . . . . . . . . . . . . . . . . . . .     ",
"    . . . . . . . . . . . . . . . . . . . . . . . . . . . . = - ; . . . . . . . . . . . . . . . . . . . . . . . . . . . . .     ",
"  . . . . . . . . . . . . . . . . . . . . . . . . . . . . > - , . . . . . . . . . . . . . . . . . . . . . . . . . . . . . . .   ",
"  . . . . . . . . . . . . . . . . . . . . . . . . . . . ' ) ! ~ . . . . . . . . . . . . . . . . . . . . . . . . . . . . . . .   ",
"  . . . . . . . . . . . . . . . . . . . . . . . . . . { ] ^ / . . . . = ( . . . . . . . . . . . . . . . . . . . . . . . . . .   ",
"  . . . . . . . . . . _ : . . . . . . . . . . . . . < ] [ } . . . . | 1 2 3 . . . . . . . . . . . . . 4 . . . . . . . . . . .   ",
"  . . . . . . . . . . . 5 6 7 . . . . . . . . . 8 9 1 0 4 . . . . . . a ) b c . . . . . . . . . . d e f . . . . . . . . . . .   ",
"  . . . . . . . . . . . . g - h i j k . . . l m 6 - n o . . . . . . . . p 6 - q r s . . . . t i 6 - g . . . . . . . . . . . .   ",
"  . . . . . . . . . . . . u 1 - - - v e w x - - y z . . . . . . . . . . . A B b - - C w w 1 - - - 1 D . . . . . . . . . . . .   ",
"  . . . . . . . . . . . . . E - F G H I J I K L . . . . . . . . . . . . . . . M N E I O P Q R S - T . . . . . . . . . . . . .   ",
"  . . . . . . . . . . . . . U 6 V W . . . . . . . . . . . . . . . . . . . . . . . . . . . . W ] X Y . . . . . . . . . . . . .   ",
"  . . . . . . . . . . . . . . Z - ` . . . . . . . . . . . . . . . . . . . . . . . . . . . .  .- ... . . . . . . . . . . . . .   ",
"  . . . . . . . . . . . . . . . I v +.. . . . . . . . . . . . . . . . . . . . . . . . . . @.- #.. . . . . . . . . . . . . . .   ",
"  . . . . . . . . . . . . . . . $.%.&.*.. . . . . . . . . . . . . . . . . . . . . . . . =.-.;.>.. . . . . . . . . . . . . . .   ",
"  . . . . . . . . . . . . . . . . ,.- '.. . . . . . . . . . . . . . . . . . . . . . . . ).- r . . . . . . . . . . . . . . . .   ",
"  . . . . . . . . . . . . . . . . . n 1 !.. . . . . . . . . . . . . . . . . . . . . . { [ ~.. . . . . . . . . . . . . . . . .   ",
"  . . . . . . . . . . . . . . . . . {.[ ~.. . . . . . . . . . . . . . . . . . . . . . * [ o . . . . . . . . . . . . . . . . .   ",
"  . . . . . . . . . . . . . . . . . . ].- ^.. . . . . % /.(._._.:._._.<.[.. . . . . }.- |.. . . . . . . . . . . . . . . . . .   ",
"    . . . . . . . . . . . . . . . . . 1.2.3.W . . . 4.- - - - - - - - - - b 5.r 6.6.7.w 8.. . . . . . . . . . . . . . . . .     ",
"    . . . . . . . . . . . . . . . . . . 9.- 0.. . . . a.: b.c.d.. e.f.g.h.i.j.- k.&.v @.. . . . . . . . . . . . . . . . . .     ",
"    . . . . . . . . . . . . . . . . . . . l.- m.. . . . . . . . . . . . . . . } n.o.p.. . . . . . . . . . . . . . . . . . .     ",
"      . . . . . . . . . . . . . . . . . . q.r.. . . . . . . . . . . . . . . . . . s.>.. . . . . . . . . . . . . . . . . .       ",
"      . . . . . . . . . . . . . . . . . . . . . . . . . . . . . . . . . . . . . . . . . . . . . . . . . . . . . . . . . .       ",
"        . . . . . . . . . . . . . . . . . . . . . . . . . . . . . . . . . . . . . . . . . . . . . . . . . . . . . . . .         ",
"        . . . . . . . . . . . . . . . . . . . . . . . . . . . . . . . . . . . . . . . . . . . . . . . . . . . . . . . .         ",
"          . . . . . . . . . . . . . . . . . . . . . . . . . . . . . . . . . . . . . . . . . . . . . . . . . . . . . .           ",
"          . . . . . . . . . . . . . . . . . . . . . . . . . . . . . . . . . . . . . . . . . . . . . . . . . . . . . .           ",
"            . . . . . . . . . . . . . . . . . . . . . . . . . . . . . . . . . . . . . . . . . . . . . . . . . . . .             ",
"              . . . . . . . . . . . . . . . . . . . . . . . . . . . . . . . . . . . . . . . . . . . . . . . . . .               ",
"              . . . . . . . . . . . . . . . . . . . . . . . . . . . . . . . . . . . . . . . . . . . . . . . . . .               ",
"                . . . . . . . . . . . . . . . . . . . . . . . . . . . . . . . . . . . . . . . . . . . . . . . .                 ",
"                  . . . . . . . . . . . . . . . . . . . . . . . . . . . . . . . . . . . . . . . . . . . . . .                   ",
"                    . . . . . . . . . . . . . . . . . . . . . . . . . . . . . . . . . . . . . . . . . . . .                     ",
"                      . . . . . . . . . . . . . . . . . . . . . . . . . . . . . . . . . . . . . . . . . .                       ",
"                        . . . . . . . . . . . . . . . . . . . . . . . . . . . . . . . . . . . . . . . .                         ",
"                            . . . . . . . . . . . . . . . . . . . . . . . . . . . . . . . . . . . .                             ",
"                              . . . . . . . . . . . . . . . . . . . . . . . . . . . . . . . . . .                               ",
"                                  . . . . . . . . . . . . . . . . . . . . . . . . . . . . . .                                   ",
"                                      . . . . . . . . . . . . . . . . . . . . . . . . . .                                       ",
"                                          . . . . . . . . . . . . . . . . . . . . . .                                           ",
"                                                . . . . . . . . . . . . . . . .                                                 ",
"                                                                                                                                "};
